<?xml version="1.0" standalone="no"?>
<!DOCTYPE svg PUBLIC "-//W3C//DTD SVG 20010904//EN"
 "http://www.w3.org/TR/2001/REC-SVG-20010904/DTD/svg10.dtd">
<svg version="1.0" xmlns="http://www.w3.org/2000/svg"
 width="700.000000pt" height="700.000000pt" viewBox="0 0 700.000000 700.000000"
 preserveAspectRatio="xMidYMid meet">
<metadata>
Created by potrace 1.11, written by Peter Selinger 2001-2013
</metadata>
<g transform="translate(0.000000,700.000000) scale(0.100000,-0.100000)"
fill="#000000" stroke="none">
<path d="M473 6030 c-68 -41 -63 106 -63 -1842 0 -1659 1 -1765 18 -1797 9
-19 33 -43 52 -53 33 -17 143 -18 3003 -18 3266 0 3016 -5 3057 62 20 33 20
45 20 1801 0 1953 5 1806 -63 1847 -32 20 -74 20 -3012 20 -2938 0 -2980 0
-3012 -20z m3538 -710 c46 -24 79 -72 79 -116 0 -20 -55 -145 -156 -350 -86
-176 -182 -373 -214 -439 -32 -66 -127 -262 -212 -435 -85 -173 -205 -420
-268 -547 -109 -225 -115 -234 -155 -253 -23 -11 -51 -20 -64 -20 -33 0 -96
35 -115 65 -39 59 -34 76 74 300 57 116 137 282 180 370 43 88 128 264 190
390 62 127 143 293 180 370 278 575 318 654 347 669 39 21 87 20 134 -4z
m-1395 -719 c80 -37 131 -143 103 -216 -13 -34 -40 -55 -259 -197 -135 -88
-246 -162 -247 -166 -1 -4 106 -77 239 -162 132 -85 247 -164 255 -176 25 -38
27 -88 6 -135 -33 -73 -104 -129 -164 -129 -26 0 -721 448 -761 491 -56 59
-57 153 -2 218 14 17 89 72 167 122 78 50 239 154 357 230 134 87 224 139 240
139 14 0 44 -9 66 -19z m1915 -34 c302 -191 620 -403 651 -436 44 -46 56 -95
38 -154 -16 -54 -62 -97 -195 -182 -61 -38 -180 -115 -265 -170 -279 -182
-317 -205 -339 -205 -48 0 -129 58 -158 114 -18 36 -21 113 -5 143 7 12 122
93 257 180 134 87 245 161 245 164 0 3 -110 77 -245 165 -217 141 -246 163
-260 197 -18 46 -9 100 28 156 27 41 95 81 138 81 14 0 63 -24 110 -53z"/>
</g>
</svg>
